<?xml version="1.0" standalone="no"?>
<!DOCTYPE svg PUBLIC "-//W3C//DTD SVG 20010904//EN"
 "http://www.w3.org/TR/2001/REC-SVG-20010904/DTD/svg10.dtd">
<svg version="1.0" xmlns="http://www.w3.org/2000/svg"
 width="260.000000pt" height="260.000000pt" viewBox="0 0 260.000000 260.000000"
 preserveAspectRatio="xMidYMid meet">
<metadata>
Created by potrace 1.11, written by Peter Selinger 2001-2013
</metadata>
<g transform="translate(0.000000,260.000000) scale(0.100000,-0.100000)"
fill="#000000" stroke="none">
<path d="M870 1963 c-1 -5 -2 -187 -4 -406 -2 -245 -7 -402 -13 -408 -6 -6
-150 -11 -374 -12 l-364 -2 -3 -112 -3 -113 408 0 408 0 52 35 c28 19 61 48
72 64 49 69 51 85 51 537 l0 424 -115 0 c-63 0 -115 -3 -115 -7z"/>
<path d="M1298 1951 c-9 -10 -19 -29 -23 -41 -5 -16 -9 -739 -6 -968 l1 -33
118 3 117 3 -3 328 c-1 180 1 327 6 327 4 0 53 -48 107 -106 55 -59 154 -164
221 -233 66 -69 142 -148 168 -176 27 -27 66 -71 89 -97 l41 -48 76 0 c67 0
79 3 98 23 22 23 22 24 22 530 l0 507 -110 0 c-60 0 -110 -3 -111 -7 0 -5 -2
-154 -4 -332 -2 -178 -6 -326 -9 -328 -5 -6 -421 425 -602 624 -39 43 -39 43
-109 43 -57 0 -74 -4 -87 -19z"/>
</g>
</svg>
